<svg xmlns="http://www.w3.org/2000/svg" viewBox="0 0 127.21 120.15"><defs><style>.cls-1{fill:#301d4f;}.cls-2{fill:#fff;}</style></defs><g id="Capa_2" data-name="Capa 2"><g id="Capa_1-2" data-name="Capa 1"><circle class="cls-1" cx="52.87" cy="110.97" r="9.18"/><circle class="cls-1" cx="106.6" cy="110.97" r="9.18"/><path class="cls-1" d="M127.19,36.49,121,96.38a2.28,2.28,0,0,1-2,2.26l-79.19,0H39.5a2.21,2.21,0,0,1-2-2L20.32,7.18a2.18,2.18,0,0,0-2-2H2A2.38,2.38,0,0,1,0,2.6H0A2.37,2.37,0,0,1,2,0h19.5a2.21,2.21,0,0,1,2,2l5.79,30.4a2.22,2.22,0,0,0,2,2l93.91-.82C126.4,33.54,127.35,34.93,127.19,36.49Z"/><path class="cls-2" d="M78.77,81.47V79.64a1.54,1.54,0,0,0-1.54-1.37A21,21,0,0,1,71.44,77a1.28,1.28,0,0,1-.84-1.71l.17-.37a2,2,0,0,1,2.43-.77,18.69,18.69,0,0,0,6.42,1.15c4,0,6.74-1.83,6.74-4.37s-2.21-4-6.4-5.32c-5.78-1.78-9.34-3.84-9.34-7.72,0-3.4,2.8-6,7.29-7a1.47,1.47,0,0,0,1.26-1.36v-2a1.6,1.6,0,0,1,1.75-1.39h0a1.61,1.61,0,0,1,1.76,1.39v1.66a1.53,1.53,0,0,0,1.51,1.37,18.88,18.88,0,0,1,4.4.89,1.28,1.28,0,0,1,.89,1.75l-.16.35a1.94,1.94,0,0,1-2.35.77,16.93,16.93,0,0,0-5.48-.85c-4.36,0-6,2-6,3.83,0,2.33,2.09,3.49,7,5.09,5.83,1.88,8.78,4.2,8.78,8.17,0,3.27-2.68,6.35-7.71,7.39a1.43,1.43,0,0,0-1.24,1.32v2.14a1.61,1.61,0,0,1-1.76,1.39h0A1.61,1.61,0,0,1,78.77,81.47Z"/></g></g></svg>