<svg xmlns="http://www.w3.org/2000/svg" viewBox="0 0 87.19 120.98"><defs><style>.cls-1{fill:#301d4f;}.cls-2{fill:#fff;}</style></defs><g id="Capa_2" data-name="Capa 2"><g id="Capa_1-2" data-name="Capa 1"><rect class="cls-1" y="47.65" width="87.19" height="73.29" rx="3.24"/><path class="cls-1" d="M38.28,1.91,4.49,29.78a8.36,8.36,0,0,0,5.32,14.8H77.38a8.35,8.35,0,0,0,5.32-14.8L48.92,1.91A8.36,8.36,0,0,0,38.28,1.91Z"/><path class="cls-2" d="M35.94,84.29H51.25a3.37,3.37,0,0,1,3.37,3.37V121a0,0,0,0,1,0,0h-22a0,0,0,0,1,0,0V87.66A3.37,3.37,0,0,1,35.94,84.29Z"/></g></g></svg>