<svg xmlns="http://www.w3.org/2000/svg" viewBox="0 0 110.37 122.57"><defs><style>.cls-1{fill:#301d4f;}.cls-2{fill:#fff;}</style></defs><g id="Capa_2" data-name="Capa 2"><g id="Capa_1-2" data-name="Capa 1"><path class="cls-1" d="M84.42,40V7.17A2.17,2.17,0,0,0,82.25,5H23.13l33.31,5a4.67,4.67,0,0,1,4.67,4.67v97.88H82.85A1.58,1.58,0,0,0,84.42,111V77.38a2.5,2.5,0,0,1,5,0V111a6.58,6.58,0,0,1-6.57,6.57H61.11v.93A4.08,4.08,0,0,1,57,122.57l-33.67-5H6.57A6.58,6.58,0,0,1,0,111V6.58A6.59,6.59,0,0,1,6.57,0H82.25a7.18,7.18,0,0,1,7.17,7.17V40a2.5,2.5,0,0,1-5,0Z"/><path class="cls-1" d="M108.14,55.3,90.35,45a4.48,4.48,0,0,0-6.72,3.87,4.47,4.47,0,0,1-4.48,4.48H67.94a4.47,4.47,0,0,0-4.48,4.48v2.63A4.47,4.47,0,0,0,67.94,65H79.15a4.47,4.47,0,0,1,4.48,4.48h0a4.48,4.48,0,0,0,6.72,3.87l17.79-10.27A4.48,4.48,0,0,0,108.14,55.3Z"/><rect class="cls-2" x="45.51" y="65.88" width="7.88" height="16.1" rx="3.57"/></g></g></svg>