<svg xmlns="http://www.w3.org/2000/svg" viewBox="0 0 256.28 78.29"><defs><style>.cls-1{opacity:0.57;}.cls-2{fill:#413b4c;}.cls-3{fill:#301d4f;}</style></defs><g id="Capa_2" data-name="Capa 2"><g id="Capa_1-2" data-name="Capa 1"><g class="cls-1"><path class="cls-2" d="M135.15,68.32V65.19a1.61,1.61,0,0,0-1.44-1.6q-5.82-.6-8.87-4.31c-2.06-2.51-3.27-6.15-3.6-10.91a1.61,1.61,0,0,1,1.33-1.71l6.27-1.07a1.61,1.61,0,0,1,1.87,1.47,23.89,23.89,0,0,0,.59,3.82A7,7,0,0,0,133,54.23a4.07,4.07,0,0,0,2.94,1.1A3,3,0,0,0,138.8,54a6.1,6.1,0,0,0,.77-3.08A10,10,0,0,0,138,45.19a24.08,24.08,0,0,0-4.32-4.65L128,35.65A36,36,0,0,1,124.51,32a14.89,14.89,0,0,1-2.44-4.28,16,16,0,0,1-.91-5.69c0-4.2,1.2-7.46,3.58-9.81A14.3,14.3,0,0,1,133,8.36a1.6,1.6,0,0,0,1.38-1.58V3.86A1.61,1.61,0,0,1,136,2.25h0a1.61,1.61,0,0,1,1.61,1.61V6.75A1.62,1.62,0,0,0,139,8.34a11.17,11.17,0,0,1,4.51,1.51A10,10,0,0,1,147,13.46a17.13,17.13,0,0,1,1.74,4.76c.24,1.17.42,2.31.54,3.43a1.61,1.61,0,0,1-1.37,1.77l-6.32.93a1.61,1.61,0,0,1-1.84-1.49,24.47,24.47,0,0,0-.32-2.64,6.34,6.34,0,0,0-1.2-3,3.09,3.09,0,0,0-2.68-1,3.39,3.39,0,0,0-2.84,1.48,5.35,5.35,0,0,0-1,3.14,7.8,7.8,0,0,0,1.47,4.95,31.31,31.31,0,0,0,3.35,3.62l5.55,4.82a37.31,37.31,0,0,1,4.08,4.35,20.44,20.44,0,0,1,3,5.18,17.7,17.7,0,0,1,1.13,6.53,14.48,14.48,0,0,1-1.43,6.46,12,12,0,0,1-4.15,4.72,13.09,13.09,0,0,1-5.06,2A1.62,1.62,0,0,0,138.36,65v3.29a1.6,1.6,0,0,1-1.6,1.6h0A1.61,1.61,0,0,1,135.15,68.32Z"/><path class="cls-2" d="M8.9,63.1,1.78,8.1A1.71,1.71,0,0,1,3.47,6.16h6.62a1.71,1.71,0,0,1,1.7,1.52l2.37,20.93a1.71,1.71,0,0,0,3.4.06l3-21a1.71,1.71,0,0,1,1.7-1.46h5A1.72,1.72,0,0,1,29,7.69L32.2,28.93a1.71,1.71,0,0,0,3.39-.06L38,7.68a1.72,1.72,0,0,1,1.7-1.52h6.48a1.71,1.71,0,0,1,1.7,1.93l-7.06,55a1.72,1.72,0,0,1-1.7,1.5H32a1.71,1.71,0,0,1-1.69-1.45L26.56,38.86a1.71,1.71,0,0,0-3.39,0L19.63,63.12a1.73,1.73,0,0,1-1.7,1.47H10.6A1.72,1.72,0,0,1,8.9,63.1Z"/><path class="cls-2" d="M66.8,65.31a15.94,15.94,0,0,1-7.72-1.7,10.92,10.92,0,0,1-4.69-5,18.13,18.13,0,0,1-1.58-7.9v-14a18,18,0,0,1,1.58-8,11,11,0,0,1,4.76-4.91,16.07,16.07,0,0,1,7.65-1.69,15.12,15.12,0,0,1,7.72,1.73A10.31,10.31,0,0,1,78.88,29,20.6,20.6,0,0,1,80.29,37v5A2.3,2.3,0,0,1,78,44.32H65.86a2.31,2.31,0,0,0-2.31,2.31V52.4a9.4,9.4,0,0,0,.4,3A3,3,0,0,0,65.07,57a3.26,3.26,0,0,0,1.8.47A3.32,3.32,0,0,0,68.64,57a2.78,2.78,0,0,0,1.12-1.48,8.11,8.11,0,0,0,.36-2.67V51.17a2.31,2.31,0,0,1,2.31-2.31h5.48a2.32,2.32,0,0,1,2.31,2.31v1.16q0,6.35-3.47,9.66T66.8,65.31Zm-.94-26.18h2a2.31,2.31,0,0,0,2.31-2.31V35a9.78,9.78,0,0,0-.36-2.92,2.78,2.78,0,0,0-1.12-1.58A3.51,3.51,0,0,0,66.73,30a3,3,0,0,0-1.77.5,3.21,3.21,0,0,0-1,1.77,13.18,13.18,0,0,0-.37,3.57v.94A2.32,2.32,0,0,0,65.86,39.13Z"/><path class="cls-2" d="M106.33,65.31a10,10,0,0,1-4.48-1.08,19.18,19.18,0,0,1-2.5-1.52,1,1,0,0,0-1.61.85h0a1,1,0,0,1-1,1H87.88a1,1,0,0,1-1-1V7.19a1,1,0,0,1,1-1h8.83a1,1,0,0,1,1,1V23.86a1,1,0,0,0,1.65.83,14.89,14.89,0,0,1,2.61-1.5,11,11,0,0,1,4.61-1,7.72,7.72,0,0,1,4.26,1.11,8.71,8.71,0,0,1,2.81,3,13.19,13.19,0,0,1,1.52,4.18,25.26,25.26,0,0,1,.43,4.69v16.3a23.18,23.18,0,0,1-1,7.14,10.81,10.81,0,0,1-3.06,4.91A7.66,7.66,0,0,1,106.33,65.31ZM101.49,58a2.51,2.51,0,0,0,2-.83,4.52,4.52,0,0,0,1-2.2,17.48,17.48,0,0,0,.25-3V34.51a12.13,12.13,0,0,0-.29-2.74,4.39,4.39,0,0,0-1-2,2.53,2.53,0,0,0-2-.76,4.17,4.17,0,0,0-1.94.47,11.11,11.11,0,0,0-1.37.8,1,1,0,0,0-.44.85v25a1,1,0,0,0,.49.88,8.39,8.39,0,0,0,1.32.63A5.34,5.34,0,0,0,101.49,58Z"/><path class="cls-2" d="M158,61.64V9.12a3,3,0,0,1,2.95-3h4.92a3,3,0,0,1,2.95,3V21a2.94,2.94,0,0,0,4.26,2.64l.57-.28a13,13,0,0,1,5.48-1.15,6.45,6.45,0,0,1,4.15,1.29,7.8,7.8,0,0,1,2.42,3.43,13.65,13.65,0,0,1,.79,4.8V61.64a3,3,0,0,1-3,3h-5a3,3,0,0,1-3-3V33.5a5.39,5.39,0,0,0-.5-2.6,2.17,2.17,0,0,0-2-.86,5.13,5.13,0,0,0-2,.47c-.25.1-.5.22-.75.35a2.88,2.88,0,0,0-1.52,2.58v28.2a3,3,0,0,1-2.95,3h-4.92A3,3,0,0,1,158,61.64Z"/><path class="cls-2" d="M206.8,65.31a16.61,16.61,0,0,1-7.64-1.62,10.87,10.87,0,0,1-4.8-4.73,16.56,16.56,0,0,1-1.62-7.72v-15a16.56,16.56,0,0,1,1.62-7.72,10.85,10.85,0,0,1,4.8-4.72,18.85,18.85,0,0,1,15.29,0,11.12,11.12,0,0,1,4.83,4.72,16.3,16.3,0,0,1,1.66,7.72v15A16.3,16.3,0,0,1,219.28,59a11.14,11.14,0,0,1-4.83,4.73A16.68,16.68,0,0,1,206.8,65.31Zm.07-7.36a2.72,2.72,0,0,0,2.09-.76,3.79,3.79,0,0,0,.94-2.09,18.61,18.61,0,0,0,.22-3.06V35.52a18.45,18.45,0,0,0-.22-3.1,4,4,0,0,0-.94-2.09,3.13,3.13,0,0,0-4.18,0,4.24,4.24,0,0,0-1,2.09,16.32,16.32,0,0,0-.25,3.1V52a16.46,16.46,0,0,0,.25,3.06,4,4,0,0,0,1,2.09A2.74,2.74,0,0,0,206.87,58Z"/><path class="cls-2" d="M227.57,77.29V23.9a1,1,0,0,1,1-1h8.9a1,1,0,0,1,1,1h0a1,1,0,0,0,1.61.79,14.2,14.2,0,0,1,2.61-1.5,11.13,11.13,0,0,1,4.58-1,7.72,7.72,0,0,1,4.26,1.11,8.71,8.71,0,0,1,2.81,3,13.19,13.19,0,0,1,1.52,4.18,25.26,25.26,0,0,1,.43,4.69v16.3a23.18,23.18,0,0,1-1,7.14,10.81,10.81,0,0,1-3.06,4.91,7.76,7.76,0,0,1-5.31,1.8,9.53,9.53,0,0,1-4.36-1.08,20.33,20.33,0,0,1-2.49-1.53,1,1,0,0,0-1.59.78V77.29a1,1,0,0,1-1,1h-8.9A1,1,0,0,1,227.57,77.29ZM242.07,58a2.51,2.51,0,0,0,2.06-.83,5,5,0,0,0,1-2.2,14.81,14.81,0,0,0,.29-3V34.51a12.13,12.13,0,0,0-.29-2.74,4.14,4.14,0,0,0-1-2,2.55,2.55,0,0,0-2-.76,4.17,4.17,0,0,0-1.94.47,7.68,7.68,0,0,0-1.38.88,1,1,0,0,0-.36.78V56.24a1,1,0,0,0,.48.85,8.08,8.08,0,0,0,1.26.61A5.17,5.17,0,0,0,242.07,58Z"/></g><path class="cls-3" d="M133.39,66.06V62.93A1.6,1.6,0,0,0,132,61.34q-5.82-.62-8.87-4.31c-2.06-2.52-3.27-6.15-3.6-10.91a1.62,1.62,0,0,1,1.33-1.72l6.27-1.06A1.61,1.61,0,0,1,129,44.81a24.07,24.07,0,0,0,.59,3.82A6.92,6.92,0,0,0,131.25,52a4,4,0,0,0,2.94,1.11A3,3,0,0,0,137,51.74a6.1,6.1,0,0,0,.77-3.08,10,10,0,0,0-1.57-5.72,24.4,24.4,0,0,0-4.32-4.66l-5.69-4.88a37.05,37.05,0,0,1-3.48-3.68,14.82,14.82,0,0,1-2.44-4.29,16,16,0,0,1-.91-5.69q0-6.28,3.58-9.8a14.24,14.24,0,0,1,8.23-3.83,1.61,1.61,0,0,0,1.38-1.59V1.61A1.61,1.61,0,0,1,134.19,0h0a1.61,1.61,0,0,1,1.61,1.61V4.5a1.62,1.62,0,0,0,1.41,1.59,11.23,11.23,0,0,1,4.51,1.51,10,10,0,0,1,3.52,3.61A17.06,17.06,0,0,1,147,16c.24,1.17.42,2.32.54,3.44a1.62,1.62,0,0,1-1.37,1.77l-6.33.93A1.61,1.61,0,0,1,138,20.61a26.53,26.53,0,0,0-.32-2.64,6.43,6.43,0,0,0-1.2-3,3.11,3.11,0,0,0-2.68-1A3.36,3.36,0,0,0,131,15.46a5.41,5.41,0,0,0-1,3.15,7.8,7.8,0,0,0,1.47,4.95,31.24,31.24,0,0,0,3.35,3.61L140.35,32a38.19,38.19,0,0,1,4.08,4.35,20.67,20.67,0,0,1,3,5.19,17.66,17.66,0,0,1,1.13,6.53,14.54,14.54,0,0,1-1.43,6.46A12,12,0,0,1,143,59.23a12.84,12.84,0,0,1-5.05,2,1.61,1.61,0,0,0-1.34,1.58v3.28a1.61,1.61,0,0,1-1.6,1.61h0A1.61,1.61,0,0,1,133.39,66.06Z"/><path class="cls-3" d="M7.14,60.84,0,5.84a1.72,1.72,0,0,1,1.7-1.93H8.33A1.7,1.7,0,0,1,10,5.43L12.4,26.36a1.71,1.71,0,0,0,3.4.05l3-21A1.71,1.71,0,0,1,20.51,4h5a1.72,1.72,0,0,1,1.7,1.46l3.19,21.24a1.71,1.71,0,0,0,3.39-.06l2.4-21.19a1.71,1.71,0,0,1,1.7-1.52h6.48a1.72,1.72,0,0,1,1.7,1.93l-7.06,55a1.72,1.72,0,0,1-1.7,1.49H30.23a1.69,1.69,0,0,1-1.69-1.45L24.8,36.61a1.71,1.71,0,0,0-3.39,0L17.87,60.87a1.72,1.72,0,0,1-1.7,1.46H8.84A1.71,1.71,0,0,1,7.14,60.84Z"/><path class="cls-3" d="M65,63.06a15.94,15.94,0,0,1-7.72-1.7,10.94,10.94,0,0,1-4.69-5,18.08,18.08,0,0,1-1.58-7.89v-14a18,18,0,0,1,1.58-8,11,11,0,0,1,4.76-4.9A16.07,16.07,0,0,1,65,19.92a15.22,15.22,0,0,1,7.72,1.73,10.4,10.4,0,0,1,4.36,5.05,20.69,20.69,0,0,1,1.41,8.08v5a2.31,2.31,0,0,1-2.31,2.31H64.1a2.31,2.31,0,0,0-2.31,2.3v5.77a9.36,9.36,0,0,0,.4,3,3,3,0,0,0,1.12,1.62,3.17,3.17,0,0,0,1.8.47,3.25,3.25,0,0,0,1.77-.47A2.75,2.75,0,0,0,68,53.25a8.19,8.19,0,0,0,.36-2.67V48.92a2.3,2.3,0,0,1,2.3-2.31h5.49a2.31,2.31,0,0,1,2.31,2.31v1.15q0,6.34-3.47,9.67T65,63.06ZM64.1,36.87h2a2.31,2.31,0,0,0,2.31-2.3V32.76A9.78,9.78,0,0,0,68,29.84a2.85,2.85,0,0,0-1.12-1.59A3.6,3.6,0,0,0,65,27.78a2.9,2.9,0,0,0-1.77.51,3.22,3.22,0,0,0-1.05,1.77,13.67,13.67,0,0,0-.36,3.57v.94A2.31,2.31,0,0,0,64.1,36.87Z"/><path class="cls-3" d="M104.57,63.06A9.83,9.83,0,0,1,100.09,62a17.57,17.57,0,0,1-2.5-1.52A1,1,0,0,0,96,61.3h0a1,1,0,0,1-1,1H86.12a1,1,0,0,1-1-1V4.94a1,1,0,0,1,1-1H95a1,1,0,0,1,1,1V21.61a1,1,0,0,0,1.65.82,16.28,16.28,0,0,1,2.61-1.5,11.14,11.14,0,0,1,4.61-1A7.72,7.72,0,0,1,109.11,21a8.68,8.68,0,0,1,2.81,3,13.25,13.25,0,0,1,1.52,4.19,25.26,25.26,0,0,1,.43,4.69v16.3a23.18,23.18,0,0,1-1,7.14,10.66,10.66,0,0,1-3.07,4.9A7.64,7.64,0,0,1,104.57,63.06Zm-4.84-7.29a2.54,2.54,0,0,0,2-.83,4.56,4.56,0,0,0,1-2.2,17.51,17.51,0,0,0,.25-3V32.26a12.06,12.06,0,0,0-.29-2.74,4.48,4.48,0,0,0-1-2,2.56,2.56,0,0,0-2-.75,4.29,4.29,0,0,0-1.94.46,12.63,12.63,0,0,0-1.37.81,1,1,0,0,0-.44.85v25a1,1,0,0,0,.49.88,8.39,8.39,0,0,0,1.32.63A5.34,5.34,0,0,0,99.73,55.77Z"/><path class="cls-3" d="M156.21,59.38V6.86a3,3,0,0,1,2.95-2.95h4.92a3,3,0,0,1,2.95,3V18.72a2.94,2.94,0,0,0,4.26,2.63c.19-.09.38-.19.57-.27a13,13,0,0,1,5.48-1.16,6.45,6.45,0,0,1,4.15,1.3,7.8,7.8,0,0,1,2.42,3.43,13.63,13.63,0,0,1,.79,4.79V59.38a3,3,0,0,1-2.95,2.95h-5a3,3,0,0,1-2.95-2.95V31.25a5.24,5.24,0,0,0-.51-2.6,2.13,2.13,0,0,0-2-.87,5.31,5.31,0,0,0-2,.47l-.75.35A2.88,2.88,0,0,0,167,31.18v28.2a3,3,0,0,1-2.95,2.95h-4.92A3,3,0,0,1,156.21,59.38Z"/><path class="cls-3" d="M205,63.06a16.68,16.68,0,0,1-7.65-1.63,10.82,10.82,0,0,1-4.79-4.72A16.56,16.56,0,0,1,191,49V34a16.56,16.56,0,0,1,1.62-7.72,10.82,10.82,0,0,1,4.79-4.72,18.77,18.77,0,0,1,15.3,0,11.07,11.07,0,0,1,4.83,4.72A16.3,16.3,0,0,1,219.18,34V49a16.3,16.3,0,0,1-1.66,7.72,11.07,11.07,0,0,1-4.83,4.72A16.68,16.68,0,0,1,205,63.06Zm.07-7.36a2.72,2.72,0,0,0,2.09-.76,3.79,3.79,0,0,0,.94-2.09,18.65,18.65,0,0,0,.22-3.07V33.27a18.66,18.66,0,0,0-.22-3.11,4,4,0,0,0-.94-2.09,3.16,3.16,0,0,0-4.18,0,4.28,4.28,0,0,0-1,2.09,16.43,16.43,0,0,0-.26,3.11V49.78a16.44,16.44,0,0,0,.26,3.07,4,4,0,0,0,1,2.09A2.74,2.74,0,0,0,205.11,55.7Z"/><path class="cls-3" d="M225.81,75V21.64a1,1,0,0,1,1-1h8.9a1,1,0,0,1,1,1h0a1,1,0,0,0,1.61.79,15.45,15.45,0,0,1,2.61-1.5,11.25,11.25,0,0,1,4.58-1A7.72,7.72,0,0,1,249.76,21a8.68,8.68,0,0,1,2.81,3,13.25,13.25,0,0,1,1.52,4.19,25.26,25.26,0,0,1,.43,4.69v16.3a23.18,23.18,0,0,1-1,7.14,10.66,10.66,0,0,1-3.07,4.9,7.74,7.74,0,0,1-5.3,1.81A9.42,9.42,0,0,1,240.78,62a18.13,18.13,0,0,1-2.49-1.53,1,1,0,0,0-1.59.78V75a1,1,0,0,1-1,1h-8.9A1,1,0,0,1,225.81,75Zm14.5-19.27a2.54,2.54,0,0,0,2.06-.83,5.08,5.08,0,0,0,1-2.2,14.84,14.84,0,0,0,.29-3V32.26a12.06,12.06,0,0,0-.29-2.74,4.23,4.23,0,0,0-1-2,2.58,2.58,0,0,0-2-.75,4.29,4.29,0,0,0-1.94.46,7.73,7.73,0,0,0-1.38.89,1,1,0,0,0-.36.77V54a1,1,0,0,0,.48.85,8.08,8.08,0,0,0,1.26.61A5.4,5.4,0,0,0,240.31,55.77Z"/></g></g></svg>